<?xml version="1.0" encoding="UTF-8" standalone="no"?>
<svg
   xmlns:dc="http://purl.org/dc/elements/1.1/"
   xmlns:cc="http://creativecommons.org/ns#"
   xmlns:rdf="http://www.w3.org/1999/02/22-rdf-syntax-ns#"
   xmlns:svg="http://www.w3.org/2000/svg"
   xmlns="http://www.w3.org/2000/svg"
   xmlns:sodipodi="http://sodipodi.sourceforge.net/DTD/sodipodi-0.dtd"
   xmlns:inkscape="http://www.inkscape.org/namespaces/inkscape"
   id="Layer_4"
   width="134.1"
   height="32"
   version="1.1"
   sodipodi:docname="logo-monochrome.svg"
   inkscape:version="0.92.2 5c3e80d, 2017-08-06"
   inkscape:export-filename="/Users/devid/Workspace/GDG/hoverboard/images/logo-monochrome.png"
   inkscape:export-xdpi="96"
   inkscape:export-ydpi="96">
  <metadata
     id="metadata283">
    <rdf:RDF>
      <cc:Work
         rdf:about="">
        <dc:format>image/svg+xml</dc:format>
        <dc:type
           rdf:resource="http://purl.org/dc/dcmitype/StillImage" />
        <dc:title></dc:title>
      </cc:Work>
    </rdf:RDF>
  </metadata>
  <defs
     id="defs281" />
  <sodipodi:namedview
     pagecolor="#ffffff"
     bordercolor="#666666"
     borderopacity="1"
     objecttolerance="10"
     gridtolerance="10"
     guidetolerance="10"
     inkscape:pageopacity="0"
     inkscape:pageshadow="2"
     inkscape:window-width="1680"
     inkscape:window-height="963"
     id="namedview279"
     showgrid="false"
     inkscape:zoom="9.6644291"
     inkscape:cx="66.119404"
     inkscape:cy="22.998553"
     inkscape:window-x="0"
     inkscape:window-y="0"
     inkscape:window-maximized="1"
     inkscape:current-layer="Layer_4" />
  <style
     id="style268">.st0{fill:#673ab7}</style>
  <g
     id="XMLID_261_"
     transform="scale(0.89652778)">
    <path
       id="XMLID_259_"
       d="M 5.2,0 H 0 l 14.8,25.6 2.6,-4.5 z"
       class="st0"
       inkscape:connector-curvature="0"
       style="fill:#673ab7" />
    <path
       id="XMLID_258_"
       d="M 19.3,14.6 10.9,0 H 5.8 l 11.9,20.6 1.7,-2.9 c 0.3,-0.5 0.4,-1 0.4,-1.6 0,-0.5 -0.2,-1.1 -0.5,-1.5 z"
       class="st0"
       inkscape:connector-curvature="0"
       style="fill:#673ab7" />
    <path
       id="XMLID_257_"
       d="M 9,16.7 0.2,32 h 5.1 l 6.3,-10.9 z"
       class="st0"
       inkscape:connector-curvature="0"
       style="fill:#673ab7" />
    <path
       id="XMLID_256_"
       d="M 11.9,21.6 5.9,32 h 5.2 l 3.4,-5.9 z"
       class="st0"
       inkscape:connector-curvature="0"
       style="fill:#673ab7" />
  </g>
  <g
     aria-label="GDG DevFest"
     style="font-style:normal;font-variant:normal;font-weight:normal;font-stretch:normal;font-size:14.66666698px;line-height:1.25;font-family:'Product Sans';-inkscape-font-specification:'Product Sans';letter-spacing:0px;word-spacing:0px;fill:#673ab7;fill-opacity:1;stroke:none"
     id="text287">
    <path
       d="m 41.16828,6.1698038 q 0,2.2 -1.305333,3.5053334 -1.466667,1.5546668 -3.857334,1.5546668 -2.288,0 -3.872,-1.5840001 -1.584,-1.5840001 -1.584,-3.9013335 0,-2.3173333 1.584,-3.9013334 1.584,-1.58400002 3.872,-1.58400002 1.158667,0 2.185334,0.41066668 1.026666,0.41066664 1.686666,1.15866664 l -0.968,0.9680001 Q 38.425613,2.2098037 37.64828,1.887137 36.885613,1.5498037 36.005613,1.5498037 q -1.716,0 -2.904,1.188 -1.173333,1.2026667 -1.173333,3.0066667 0,1.8040001 1.173333,3.0066668 1.188,1.188 2.904,1.188 1.569334,0 2.610667,-0.88 1.041333,-0.88 1.202667,-2.4200001 H 36.005613 V 5.3778038 h 5.089334 q 0.07333,0.4106666 0.07333,0.792 z"
       style="font-size:14.66666698px;line-height:0;fill:#673ab7;fill-opacity:1"
       id="path276" />
    <path
       d="M 42.807739,10.995137 V 0.49380365 h 3.212 q 2.405333,0 3.857333,1.45200005 1.466667,1.452 1.466667,3.7986667 0,2.3613334 -1.466667,3.8133335 -1.452,1.4373331 -3.857333,1.4373331 z m 1.349333,-9.2106667 v 7.9200002 h 1.862667 q 1.833333,0 2.889333,-1.0413333 1.056,-1.0560001 1.056,-2.9186668 0,-1.848 -1.056,-2.904 -1.056,-1.0560001 -2.889333,-1.0560001 z"
       style="font-size:14.66666698px;line-height:0;fill:#673ab7;fill-opacity:1"
       id="path278" />
    <path
       d="m 63.053698,6.1698038 q 0,2.2 -1.305333,3.5053334 -1.466667,1.5546668 -3.857334,1.5546668 -2.288,0 -3.872,-1.5840001 -1.584,-1.5840001 -1.584,-3.9013335 0,-2.3173333 1.584,-3.9013334 1.584,-1.58400002 3.872,-1.58400002 1.158667,0 2.185334,0.41066668 1.026666,0.41066664 1.686666,1.15866664 l -0.968,0.9680001 q -0.484,-0.5866667 -1.261333,-0.9093334 -0.762667,-0.3373333 -1.642667,-0.3373333 -1.716,0 -2.904,1.188 -1.173333,1.2026667 -1.173333,3.0066667 0,1.8040001 1.173333,3.0066668 1.188,1.188 2.904,1.188 1.569334,0 2.610667,-0.88 1.041333,-0.88 1.202667,-2.4200001 H 57.891031 V 5.3778038 h 5.089334 q 0.07333,0.4106666 0.07333,0.792 z"
       style="font-size:14.66666698px;line-height:0;fill:#673ab7;fill-opacity:1"
       id="path280" />
    <path
       d="M 67.930134,10.995137 V 0.49380365 h 3.212 q 2.405334,0 3.857334,1.45200005 1.466666,1.452 1.466666,3.7986667 0,2.3613334 -1.466666,3.8133335 -1.452,1.4373331 -3.857334,1.4373331 z m 1.349333,-9.2106667 v 7.9200002 h 1.862667 q 1.833334,0 2.889334,-1.0413333 1.056,-1.0560001 1.056,-2.9186668 0,-1.848 -1.056,-2.904 -1.056,-1.0560001 -2.889334,-1.0560001 z"
       style="font-size:14.66666698px;line-height:0;fill:#673ab7;fill-opacity:1"
       id="path282" />
    <path
       d="m 80.833595,11.229804 q -1.584,0 -2.610667,-1.085333 -1.026666,-1.0853338 -1.026666,-2.7426672 0,-1.6426667 0.997333,-2.7280001 0.997333,-1.1 2.552,-1.1 1.598667,0 2.537333,1.0413334 0.953334,1.0266667 0.953334,2.8893334 l -0.01467,0.1466666 h -5.646667 q 0.02933,1.0560001 0.704,1.7013334 0.674667,0.6453334 1.613334,0.6453334 1.290666,0 2.024,-1.2906667 l 1.202666,0.5866666 q -0.484,0.9093332 -1.349333,1.4226672 -0.850667,0.513333 -1.936,0.513333 z m -2.156,-4.6933335 h 4.121333 q -0.05867,-0.7480001 -0.616,-1.2320001 -0.542666,-0.4986667 -1.466666,-0.4986667 -0.762667,0 -1.32,0.4693334 -0.542667,0.4693333 -0.718667,1.2613334 z"
       style="font-size:14.66666698px;line-height:0;fill:#673ab7;fill-opacity:1"
       id="path284" />
    <path
       d="m 88.803322,10.995137 h -1.349334 l -2.904,-7.1866666 h 1.466667 l 2.112,5.5733334 h 0.02933 l 2.141334,-5.5733334 h 1.437333 z"
       style="font-size:14.66666698px;line-height:0;fill:#673ab7;fill-opacity:1"
       id="path286" />
    <path
       d="M 94.201342,6.4924705 V 10.995137 H 92.852009 V 0.49380365 h 6.130667 V 1.7844703 h -4.781334 v 3.4466668 h 4.312001 v 1.2613334 z"
       style="font-size:14.66666698px;line-height:0;fill:#673ab7;fill-opacity:1"
       id="path288" />
    <path
       d="m 103.06276,11.229804 q -1.584,0 -2.61067,-1.085333 -1.026664,-1.0853338 -1.026664,-2.7426672 0,-1.6426667 0.997334,-2.7280001 0.99733,-1.1 2.552,-1.1 1.59867,0 2.53733,1.0413334 0.95334,1.0266667 0.95334,2.8893334 l -0.0147,0.1466666 h -5.64667 q 0.0293,1.0560001 0.704,1.7013334 0.67467,0.6453334 1.61334,0.6453334 1.29066,0 2.024,-1.2906667 l 1.20266,0.5866666 q -0.484,0.9093332 -1.34933,1.4226672 -0.85067,0.513333 -1.936,0.513333 z m -2.156,-4.6933335 h 4.12133 q -0.0587,-0.7480001 -0.616,-1.2320001 -0.54266,-0.4986667 -1.46666,-0.4986667 -0.76267,0 -1.32,0.4693334 -0.54267,0.4693333 -0.71867,1.2613334 z"
       style="font-size:14.66666698px;line-height:0;fill:#673ab7;fill-opacity:1"
       id="path290" />
    <path
       d="m 113.27099,9.0004705 q 0,0.9386667 -0.82133,1.5840005 -0.82134,0.645333 -2.068,0.645333 -1.08534,0 -1.90667,-0.557333 -0.82133,-0.572 -1.17333,-1.4960005 l 1.20266,-0.5133333 q 0.264,0.6453333 0.76267,1.012 0.51333,0.3519998 1.11467,0.3519998 0.64533,0 1.07066,-0.2786665 0.44,-0.2786667 0.44,-0.66 0,-0.6893333 -1.056,-1.012 l -1.232,-0.308 q -2.09733,-0.528 -2.09733,-2.0240001 0,-0.9826667 0.792,-1.5693333 0.80667,-0.6013334 2.05333,-0.6013334 0.95334,0 1.716,0.4546667 0.77734,0.4546667 1.08534,1.2173334 l -1.20267,0.4986666 q -0.20533,-0.4546666 -0.67467,-0.704 -0.45466,-0.264 -1.02666,-0.264 -0.528,0 -0.95334,0.264 -0.41066,0.264 -0.41066,0.6453334 0,0.616 1.15866,0.88 l 1.08534,0.2786667 q 2.14133,0.528 2.14133,2.156 z"
       style="font-size:14.66666698px;line-height:0;fill:#673ab7;fill-opacity:1"
       id="path292" />
    <path
       d="m 117.20486,11.112471 q -0.88,0 -1.46666,-0.542667 -0.572,-0.542667 -0.58667,-1.5106668 V 5.0404704 h -1.26133 v -1.232 h 1.26133 V 1.6084703 h 1.34933 v 2.2000001 h 1.76 v 1.232 h -1.76 v 3.5786668 q 0,0.7186666 0.27867,0.9826667 0.27867,0.2493333 0.63067,0.2493333 0.16133,0 0.308,-0.029333 0.16133,-0.044 0.29333,-0.1026667 l 0.42533,1.2026668 q -0.528,0.190667 -1.232,0.190667 z"
       style="font-size:14.66666698px;line-height:0;fill:#673ab7;fill-opacity:1"
       id="path294" />
  </g>
  <g
     aria-label="Emilia Romagna"
     style="font-style:normal;font-variant:normal;font-weight:normal;font-stretch:normal;font-size:15.29741383px;line-height:1.25;font-family:'Product Sans';-inkscape-font-specification:'Product Sans';letter-spacing:0px;word-spacing:0px;fill:#673ab7;fill-opacity:1;stroke:none;stroke-width:1.04300547"
     id="text295">
    <path
       d="m 37.353792,17.279189 v 1.346173 h -4.986957 v 3.472513 h 4.497439 v 1.315577 h -4.497439 v 3.472513 h 4.986957 v 1.346173 H 30.959473 V 17.279189 Z"
       style="line-height:1;fill:#673ab7;fill-opacity:1;stroke-width:1.04300547"
       id="path245" />
    <path
       d="m 40.278705,28.232138 h -1.407362 v -7.495733 h 1.346172 v 1.040224 h 0.06119 q 0.321245,-0.550707 0.979034,-0.917845 0.673086,-0.367138 1.330875,-0.367138 0.826061,0 1.453255,0.382436 0.627194,0.382435 0.917844,1.055521 0.933143,-1.437957 2.585263,-1.437957 1.300281,0 2.003962,0.795466 0.703681,0.795465 0.703681,2.264017 v 4.681009 h -1.407362 v -4.466845 q 0,-1.055522 -0.382436,-1.514444 -0.382435,-0.47422 -1.284983,-0.47422 -0.810763,0 -1.361469,0.688384 -0.550707,0.688383 -0.550707,1.621526 v 4.145599 H 43.8583 v -4.466845 q 0,-1.055522 -0.382436,-1.514444 -0.382435,-0.47422 -1.284982,-0.47422 -0.810763,0 -1.36147,0.688384 -0.550707,0.688383 -0.550707,1.621526 z"
       style="line-height:1;fill:#673ab7;fill-opacity:1;stroke-width:1.04300547"
       id="path247" />
    <path
       d="m 53.718439,18.151142 q 0,0.41303 -0.290651,0.703681 -0.290651,0.290651 -0.703681,0.290651 -0.41303,0 -0.703681,-0.290651 -0.290651,-0.290651 -0.290651,-0.703681 0,-0.41303 0.290651,-0.703681 0.290651,-0.290651 0.703681,-0.290651 0.41303,0 0.703681,0.290651 0.290651,0.290651 0.290651,0.703681 z m -0.290651,2.585263 v 7.495733 h -1.407362 v -7.495733 z"
       style="line-height:1;fill:#673ab7;fill-opacity:1;stroke-width:1.04300547"
       id="path249" />
    <path
       d="M 56.681595,17.279189 V 28.232138 H 55.274233 V 17.279189 Z"
       style="line-height:1;fill:#673ab7;fill-opacity:1;stroke-width:1.04300547"
       id="path251" />
    <path
       d="m 60.201914,18.151142 q 0,0.41303 -0.290651,0.703681 -0.290651,0.290651 -0.703681,0.290651 -0.413031,0 -0.703681,-0.290651 -0.290651,-0.290651 -0.290651,-0.703681 0,-0.41303 0.290651,-0.703681 0.29065,-0.290651 0.703681,-0.290651 0.41303,0 0.703681,0.290651 0.290651,0.290651 0.290651,0.703681 z m -0.290651,2.585263 v 7.495733 h -1.407362 v -7.495733 z"
       style="line-height:1;fill:#673ab7;fill-opacity:1;stroke-width:1.04300547"
       id="path253" />
    <path
       d="m 62.693002,25.937526 q 0,0.550707 0.458923,0.917844 0.47422,0.367138 1.101414,0.367138 0.88725,0 1.575633,-0.657788 0.703681,-0.657789 0.703681,-1.545039 -0.657789,-0.520112 -1.835689,-0.520112 -0.856656,0 -1.437957,0.41303 -0.566005,0.41303 -0.566005,1.024927 z m 1.820393,-5.44588 q 1.560336,0 2.462883,0.841358 0.902548,0.82606 0.902548,2.279315 v 4.619819 h -1.346173 v -1.040224 h -0.06119 q -0.871953,1.284982 -2.325207,1.284982 -1.239091,0 -2.080449,-0.734276 -0.82606,-0.734275 -0.82606,-1.835689 0,-1.162604 0.871953,-1.850987 0.88725,-0.688384 2.355801,-0.688384 1.254388,0 2.065151,0.458922 v -0.321245 q 0,-0.734276 -0.581302,-1.239091 -0.581301,-0.520112 -1.361469,-0.520112 -1.177901,0 -1.866285,0.994332 l -1.23909,-0.780168 q 1.024926,-1.468552 3.028888,-1.468552 z"
       style="line-height:1;fill:#673ab7;fill-opacity:1;stroke-width:1.04300547"
       id="path255" />
    <path
       d="m 74.494478,18.625362 v 3.854948 h 2.264018 q 0.856655,0 1.453254,-0.550707 0.596599,-0.566004 0.596599,-1.392064 0,-0.764871 -0.566004,-1.330875 -0.550707,-0.581302 -1.392065,-0.581302 z m 0,9.606776 H 73.087116 V 17.279189 h 3.732569 q 1.42266,0 2.416992,0.94844 1.009629,0.933142 1.009629,2.30991 0,1.132008 -0.749573,2.019258 -0.734276,0.871953 -1.866285,1.116711 l -0.0306,0.04589 3.074781,4.451547 v 0.06119 h -1.667419 l -2.9524,-4.43625 h -1.560337 z"
       style="line-height:1;fill:#673ab7;fill-opacity:1;stroke-width:1.04300547"
       id="path257" />
    <path
       d="m 81.108458,24.484271 q 0,-1.728607 1.086116,-2.860616 1.101414,-1.132009 2.768832,-1.132009 1.667418,0 2.753534,1.132009 1.101414,1.132009 1.101414,2.860616 0,1.743905 -1.101414,2.860617 -1.086116,1.132008 -2.753534,1.132008 -1.667418,0 -2.768832,-1.132008 -1.086116,-1.132009 -1.086116,-2.860617 z m 1.407362,0 q 0,1.208496 0.703681,1.958069 0.703681,0.749574 1.743905,0.749574 1.040224,0 1.743905,-0.749574 0.703681,-0.749573 0.703681,-1.958069 0,-1.193198 -0.703681,-1.942771 -0.718978,-0.764871 -1.743905,-0.764871 -1.024927,0 -1.743905,0.764871 -0.703681,0.749573 -0.703681,1.942771 z"
       style="line-height:1;fill:#673ab7;fill-opacity:1;stroke-width:1.04300547"
       id="path259" />
    <path
       d="m 91.369677,28.232138 h -1.407362 v -7.495733 h 1.346172 v 1.040224 h 0.06119 q 0.321245,-0.550707 0.979034,-0.917845 0.673086,-0.367138 1.330875,-0.367138 0.826061,0 1.453255,0.382436 0.627193,0.382435 0.917844,1.055521 0.933143,-1.437957 2.585263,-1.437957 1.30028,0 2.003962,0.795466 0.70368,0.795465 0.70368,2.264017 v 4.681009 h -1.407362 v -4.466845 q 0,-1.055522 -0.382435,-1.514444 -0.382435,-0.47422 -1.284983,-0.47422 -0.810763,0 -1.361469,0.688384 -0.550707,0.688383 -0.550707,1.621526 v 4.145599 h -1.407362 v -4.466845 q 0,-1.055522 -0.382436,-1.514444 -0.382435,-0.47422 -1.284983,-0.47422 -0.810762,0 -1.361469,0.688384 -0.550707,0.688383 -0.550707,1.621526 z"
       style="line-height:1;fill:#673ab7;fill-opacity:1;stroke-width:1.04300547"
       id="path261" />
    <path
       d="m 103.92431,25.937526 q 0,0.550707 0.45892,0.917844 0.47422,0.367138 1.10142,0.367138 0.88725,0 1.57563,-0.657788 0.70368,-0.657789 0.70368,-1.545039 -0.65779,-0.520112 -1.83569,-0.520112 -0.85665,0 -1.43796,0.41303 -0.566,0.41303 -0.566,1.024927 z m 1.82039,-5.44588 q 1.56034,0 2.46289,0.841358 0.90254,0.82606 0.90254,2.279315 v 4.619819 h -1.34617 v -1.040224 h -0.0612 q -0.87195,1.284982 -2.32521,1.284982 -1.23909,0 -2.08044,-0.734276 -0.82606,-0.734275 -0.82606,-1.835689 0,-1.162604 0.87195,-1.850987 0.88725,-0.688384 2.3558,-0.688384 1.25439,0 2.06515,0.458922 v -0.321245 q 0,-0.734276 -0.5813,-1.239091 -0.5813,-0.520112 -1.36147,-0.520112 -1.1779,0 -1.86628,0.994332 l -1.2391,-0.780168 q 1.02493,-1.468552 3.02889,-1.468552 z"
       style="line-height:1;fill:#673ab7;fill-opacity:1;stroke-width:1.04300547"
       id="path263" />
    <path
       d="m 113.97328,27.191914 q 1.04022,0 1.69801,-0.749574 0.68839,-0.749573 0.68839,-1.958069 0,-1.177901 -0.68839,-1.942771 -0.67308,-0.764871 -1.69801,-0.764871 -1.00963,0 -1.69801,0.764871 -0.68839,0.76487 -0.68839,1.942771 0,1.193199 0.68839,1.942772 0.68838,0.764871 1.69801,0.764871 z m -0.0459,4.589224 q -0.6272,0 -1.1779,-0.168272 -0.55071,-0.152974 -1.00963,-0.443625 -0.44363,-0.290651 -0.76487,-0.688383 -0.32125,-0.397733 -0.48952,-0.88725 l 1.33087,-0.550707 q 0.22947,0.657788 0.79547,1.055521 0.566,0.397733 1.31558,0.397733 1.1473,0 1.7898,-0.688384 0.64249,-0.688383 0.64249,-1.896879 v -0.718978 h -0.0612 q -0.39774,0.596599 -1.08612,0.948439 -0.67309,0.336543 -1.46855,0.336543 -1.46855,0 -2.52407,-1.147306 -1.04023,-1.177901 -1.04023,-2.845319 0,-1.667418 1.04023,-2.830021 1.05552,-1.162604 2.52407,-1.162604 0.79546,0 1.46855,0.351841 0.68838,0.336543 1.08612,0.933142 h 0.0612 v -1.040224 h 1.34617 v 7.174487 q 0,1.805095 -1.02493,2.830022 -1.04022,1.040224 -2.75353,1.040224 z"
       style="line-height:1;fill:#673ab7;fill-opacity:1;stroke-width:1.04300547"
       id="path265" />
    <path
       d="m 119.42179,20.736405 h 1.34617 v 1.040224 h 0.0612 q 0.32125,-0.550707 0.97904,-0.917845 0.67308,-0.367138 1.39206,-0.367138 1.37677,0 2.11105,0.795466 0.74957,0.780168 0.74957,2.233422 v 4.711604 h -1.40736 v -4.619819 q -0.0459,-1.83569 -1.85099,-1.83569 -0.84136,0 -1.40736,0.688384 -0.56601,0.673086 -0.56601,1.621526 v 4.145599 h -1.40736 z"
       style="line-height:1;fill:#673ab7;fill-opacity:1;stroke-width:1.04300547"
       id="path267" />
    <path
       d="m 128.6631,25.937526 q 0,0.550707 0.45892,0.917844 0.47422,0.367138 1.10141,0.367138 0.88725,0 1.57563,-0.657788 0.70369,-0.657789 0.70369,-1.545039 -0.65779,-0.520112 -1.83569,-0.520112 -0.85666,0 -1.43796,0.41303 -0.566,0.41303 -0.566,1.024927 z m 1.82039,-5.44588 q 1.56033,0 2.46288,0.841358 0.90255,0.82606 0.90255,2.279315 v 4.619819 h -1.34617 v -1.040224 h -0.0612 q -0.87196,1.284982 -2.32521,1.284982 -1.23909,0 -2.08045,-0.734276 -0.82606,-0.734275 -0.82606,-1.835689 0,-1.162604 0.87195,-1.850987 0.88725,-0.688384 2.35581,-0.688384 1.25438,0 2.06515,0.458922 v -0.321245 q 0,-0.734276 -0.58131,-1.239091 -0.5813,-0.520112 -1.36147,-0.520112 -1.1779,0 -1.86628,0.994332 l -1.23909,-0.780168 q 1.02493,-1.468552 3.02889,-1.468552 z"
       style="line-height:1;fill:#673ab7;fill-opacity:1;stroke-width:1.04300547"
       id="path269" />
  </g>
  <text
     xml:space="preserve"
     style="font-style:normal;font-variant:normal;font-weight:normal;font-stretch:normal;font-size:14.66666698px;line-height:1.25;font-family:'Product Sans';-inkscape-font-specification:'Product Sans';letter-spacing:0px;word-spacing:0px;fill:#000000;fill-opacity:1;stroke:none"
     x="40.354168"
     y="25.998611"
     id="text274"><tspan
       sodipodi:role="line"
       id="tspan272"
       x="40.354168"
       y="39.439529" /></text>
</svg>
