<?xml version="1.0" encoding="UTF-8" standalone="no"?>
<svg
   xmlns:dc="http://purl.org/dc/elements/1.1/"
   xmlns:cc="http://creativecommons.org/ns#"
   xmlns:rdf="http://www.w3.org/1999/02/22-rdf-syntax-ns#"
   xmlns:svg="http://www.w3.org/2000/svg"
   xmlns="http://www.w3.org/2000/svg"
   xmlns:sodipodi="http://sodipodi.sourceforge.net/DTD/sodipodi-0.dtd"
   xmlns:inkscape="http://www.inkscape.org/namespaces/inkscape"
   id="Layer_4"
   width="536.9"
   height="128"
   version="1.1"
   sodipodi:docname="logo.svg"
   inkscape:version="0.92.2 5c3e80d, 2017-08-06">
  <metadata
     id="metadata167">
    <rdf:RDF>
      <cc:Work
         rdf:about="">
        <dc:format>image/svg+xml</dc:format>
        <dc:type
           rdf:resource="http://purl.org/dc/dcmitype/StillImage" />
      </cc:Work>
    </rdf:RDF>
  </metadata>
  <defs
     id="defs165" />
  <sodipodi:namedview
     pagecolor="#ffffff"
     bordercolor="#666666"
     borderopacity="1"
     objecttolerance="10"
     gridtolerance="10"
     guidetolerance="10"
     inkscape:pageopacity="0"
     inkscape:pageshadow="2"
     inkscape:window-width="1680"
     inkscape:window-height="963"
     id="namedview163"
     showgrid="false"
     inkscape:zoom="2.4138572"
     inkscape:cx="268.29947"
     inkscape:cy="83.438094"
     inkscape:window-x="0"
     inkscape:window-y="0"
     inkscape:window-maximized="1"
     inkscape:current-layer="Layer_4" />
  <style
     id="style111">.st0{fill:none}.st5{opacity:.2;enable-background:new}.st13,.st5{fill:#fff}</style>
  <g
     id="XMLID_2_"
     transform="matrix(0.89644743,0,0,0.89644743,0.03106577,0)">
    <g
       id="XMLID_3_">
      <g
         id="XMLID_4_">
        <path
           id="XMLID_33_"
           d="M 78.7,58 45.1,0 H 0.3 l 37,64 -37,64 H 45.1 L 78.6,70 c 2.2,-3.7 2.2,-8.3 0.1,-12 z"
           class="st0"
           inkscape:connector-curvature="0"
           style="fill:none" />
        <path
           id="XMLID_32_"
           d="M 59.4,102.3 48.8,83.9 23.3,128 h 21.8 l 14.6,-25.2 z"
           inkscape:connector-curvature="0"
           style="fill:#ffc107" />
        <path
           id="XMLID_31_"
           d="M 78.7,58 45.1,0 H 0.3 l 37,64 -37,64 H 45.1 L 78.6,70 c 2.2,-3.7 2.2,-8.3 0.1,-12 z"
           class="st0"
           inkscape:connector-curvature="0"
           style="fill:none" />
        <path
           id="XMLID_30_"
           d="M 37.3,64 48.8,83.9 23.3,128 h -23 z"
           inkscape:connector-curvature="0"
           style="fill:#0f9d58" />
        <path
           id="XMLID_29_"
           d="M 78.7,58 45.1,0 H 0.3 l 37,64 -37,64 H 45.1 L 78.6,70 c 2.2,-3.7 2.2,-8.3 0.1,-12 z"
           class="st0"
           inkscape:connector-curvature="0"
           style="fill:none" />
        <path
           id="XMLID_28_"
           d="M 45.1,127 H 23.8 l -0.5,1 h 21.8 l 14.6,-25.2 -0.3,-0.5 z"
           inkscape:connector-curvature="0"
           style="opacity:0.2;fill:#bf360c" />
        <path
           id="XMLID_27_"
           d="M 78.7,58 45.1,0 H 0.3 l 37,64 -37,64 H 45.1 L 78.6,70 c 2.2,-3.7 2.2,-8.3 0.1,-12 z"
           class="st0"
           inkscape:connector-curvature="0"
           style="fill:none" />
        <path
           id="XMLID_26_"
           d="m 0.8,127 -0.5,1 h 23 l 0.5,-1 z"
           inkscape:connector-curvature="0"
           style="opacity:0.2;fill:#263238" />
        <path
           id="XMLID_25_"
           d="M 78.7,58 45.1,0 H 0.3 l 37,64 -37,64 H 45.1 L 78.6,70 c 2.2,-3.7 2.2,-8.3 0.1,-12 z"
           class="st0"
           inkscape:connector-curvature="0"
           style="fill:none" />
        <path
           id="XMLID_24_"
           d="M 0.3,128 H 0.8 L 37.6,64.5 37.3,64 Z"
           class="st5"
           inkscape:connector-curvature="0"
           style="opacity:0.2;fill:#ffffff;enable-background:new" />
        <path
           id="XMLID_23_"
           d="M 78.7,58 45.1,0 H 0.3 l 37,64 -37,64 H 45.1 L 78.6,70 c 2.2,-3.7 2.2,-8.3 0.1,-12 z"
           class="st0"
           inkscape:connector-curvature="0"
           style="fill:none" />
        <radialGradient
           id="XMLID_34_"
           cx="59.536999"
           cy="27.625999"
           r="44.264"
           gradientTransform="matrix(1,0,0,-1,0,130)"
           gradientUnits="userSpaceOnUse">
          <stop
             offset="0"
             stop-color="#bf360c"
             stop-opacity=".2"
             id="stop124" />
          <stop
             offset="1"
             stop-color="#bf360c"
             stop-opacity=".02"
             id="stop126" />
        </radialGradient>
        <path
           id="XMLID_22_"
           d="M 59.7,102.8 48.8,83.9 46.1,88.5 Z"
           style="fill:url(#XMLID_34_)"
           inkscape:connector-curvature="0" />
        <path
           id="XMLID_21_"
           d="M 78.7,58 45.1,0 H 0.3 l 37,64 -37,64 H 45.1 L 78.6,70 c 2.2,-3.7 2.2,-8.3 0.1,-12 z"
           class="st0"
           inkscape:connector-curvature="0"
           style="fill:none" />
        <radialGradient
           id="XMLID_35_"
           cx="59.410999"
           cy="27.346001"
           r="44.623001"
           gradientTransform="matrix(1,0,0,-1,0,130)"
           gradientUnits="userSpaceOnUse">
          <stop
             offset="0"
             stop-color="#263238"
             stop-opacity=".2"
             id="stop131" />
          <stop
             offset="1"
             stop-color="#263238"
             stop-opacity=".02"
             id="stop133" />
        </radialGradient>
        <path
           id="XMLID_20_"
           d="M 46.1,88.5 48.8,83.9 37.3,64 31.8,73.5 Z"
           style="fill:url(#XMLID_35_)"
           inkscape:connector-curvature="0" />
        <path
           id="XMLID_19_"
           d="M 78.7,58 45.1,0 H 0.3 l 37,64 -37,64 H 45.1 L 78.6,70 c 2.2,-3.7 2.2,-8.3 0.1,-12 z"
           class="st0"
           inkscape:connector-curvature="0"
           style="fill:none" />
        <g
           id="XMLID_16_">
          <g
             id="XMLID_17_">
            <path
               id="XMLID_18_"
               d="M 23.3,0 H 0.3 L 59.7,102.8 71.2,82.9 Z"
               inkscape:connector-curvature="0"
               style="fill:#4285f4" />
          </g>
        </g>
        <path
           id="XMLID_15_"
           d="M 78.7,58 45.1,0 H 0.3 l 37,64 -37,64 H 45.1 L 78.6,70 c 2.2,-3.7 2.2,-8.3 0.1,-12 z"
           class="st0"
           inkscape:connector-curvature="0"
           style="fill:none" />
        <path
           id="XMLID_14_"
           d="m 78.7,70 c 2.1,-3.7 2.1,-8.3 0,-12 L 45.1,0 H 23.3 l 47.9,82.9 z"
           inkscape:connector-curvature="0"
           style="fill:#db4437" />
        <path
           id="XMLID_13_"
           d="M 78.7,58 45.1,0 H 0.3 l 37,64 -37,64 H 45.1 L 78.6,70 c 2.2,-3.7 2.2,-8.3 0.1,-12 z"
           class="st0"
           inkscape:connector-curvature="0"
           style="fill:none" />
        <path
           id="XMLID_12_"
           d="M 71.2,82.9 70.9,82.4 59.7,101.8 0.8,0 H 0.3 l 59.4,102.8 z"
           inkscape:connector-curvature="0"
           style="opacity:0.2;fill:#1a237e" />
        <path
           id="XMLID_11_"
           d="M 78.7,58 45.1,0 H 0.3 l 37,64 -37,64 H 45.1 L 78.6,70 c 2.2,-3.7 2.2,-8.3 0.1,-12 z"
           class="st0"
           inkscape:connector-curvature="0"
           style="fill:none" />
        <path
           id="XMLID_10_"
           d="m 45.1,1 33.5,58 c 1,1.7 1.5,3.6 1.6,5.5 C 80.3,62.3 79.8,60 78.6,58 L 45.1,0 H 0.3 l 0.6,1 z"
           class="st5"
           inkscape:connector-curvature="0"
           style="opacity:0.2;fill:#ffffff;enable-background:new" />
        <path
           id="XMLID_9_"
           d="M 78.7,58 45.1,0 H 0.3 l 37,64 -37,64 H 45.1 L 78.6,70 c 2.2,-3.7 2.2,-8.3 0.1,-12 z"
           class="st0"
           inkscape:connector-curvature="0"
           style="fill:none" />
        <path
           id="XMLID_8_"
           d="M 71.2,82.9 78.7,70 c 1.2,-2 1.7,-4.3 1.6,-6.5 -0.1,1.9 -0.6,3.8 -1.6,5.5 L 71,82.4 Z"
           inkscape:connector-curvature="0"
           style="opacity:0.2;fill:#3e2723" />
        <path
           id="XMLID_6_"
           d="M 78.7,58 45.1,0 H 0.3 l 37,64 -37,64 H 45.1 L 78.6,70 c 2.2,-3.7 2.2,-8.3 0.1,-12 z"
           class="st0"
           inkscape:connector-curvature="0"
           style="fill:none" />
        <radialGradient
           id="XMLID_36_"
           cx="-0.74000001"
           cy="129"
           r="134.35001"
           gradientTransform="matrix(1,0,0,-1,0,130)"
           gradientUnits="userSpaceOnUse">
          <stop
             offset="0"
             stop-color="#fff"
             stop-opacity=".1"
             id="stop150" />
          <stop
             offset="1"
             stop-color="#fff"
             stop-opacity="0"
             id="stop152" />
        </radialGradient>
        <path
           id="XMLID_5_"
           d="M 78.7,58 45.1,0 H 0.3 l 37,64 -37,64 H 45.1 L 78.6,70 c 2.2,-3.7 2.2,-8.3 0.1,-12 z"
           style="fill:url(#XMLID_36_)"
           inkscape:connector-curvature="0" />
      </g>
    </g>
  </g>
  <g
     aria-label="GDG DevFest
Emilia Romagna"
     style="font-style:normal;font-variant:normal;font-weight:normal;font-stretch:normal;font-size:14.66666698px;line-height:1.25;font-family:'Product Sans';-inkscape-font-specification:'Product Sans';letter-spacing:0px;word-spacing:0px;fill:#ffffff;fill-opacity:1;stroke:none"
     id="text171">
    <path
       d="m 150.61558,28.64608 q 0,9.6 -5.696,15.296 -6.4,6.784 -16.832,6.784 -9.984,0 -16.896,-6.912 -6.912,-6.912 -6.912,-17.024 0,-10.112 6.912,-17.0240002 6.912,-6.912 16.896,-6.912 5.056,0 9.536,1.792 4.48,1.792 7.36,5.056 l -4.224,4.2240002 q -2.112,-2.56 -5.504,-3.9680002 -3.328,-1.472 -7.168,-1.472 -7.488,0 -12.672,5.1840002 -5.12,5.248 -5.12,13.12 0,7.872 5.12,13.12 5.184,5.184 12.672,5.184 6.848,0 11.392,-3.84 4.544,-3.84 5.248,-10.56 h -16.64 v -5.504 h 22.208 q 0.32,1.792 0.32,3.456 z"
       style="font-size:64px;line-height:1;fill:#ffffff"
       id="path537" />
    <path
       d="M 157.76958,49.70208 V 3.8780798 h 14.016 q 10.496,0 16.832,6.3360002 6.4,6.336 6.4,16.576 0,10.304 -6.4,16.64 -6.336,6.272 -16.832,6.272 z m 5.888,-40.1920002 V 44.07008 h 8.128 q 8,0 12.608,-4.544 4.608,-4.608 4.608,-12.736 0,-8.064 -4.608,-12.672 -4.608,-4.6080002 -12.608,-4.6080002 z"
       style="font-size:64px;line-height:1;fill:#ffffff"
       id="path539" />
    <path
       d="m 246.11558,28.64608 q 0,9.6 -5.696,15.296 -6.4,6.784 -16.832,6.784 -9.984,0 -16.896,-6.912 -6.912,-6.912 -6.912,-17.024 0,-10.112 6.912,-17.0240002 6.912,-6.912 16.896,-6.912 5.056,0 9.536,1.792 4.48,1.792 7.36,5.056 l -4.224,4.2240002 q -2.112,-2.56 -5.504,-3.9680002 -3.328,-1.472 -7.168,-1.472 -7.488,0 -12.672,5.1840002 -5.12,5.248 -5.12,13.12 0,7.872 5.12,13.12 5.184,5.184 12.672,5.184 6.848,0 11.392,-3.84 4.544,-3.84 5.248,-10.56 h -16.64 v -5.504 h 22.208 q 0.32,1.792 0.32,3.456 z"
       style="font-size:64px;line-height:1;fill:#ffffff"
       id="path541" />
    <path
       d="M 267.39458,49.70208 V 3.8780798 h 14.016 q 10.496,0 16.832,6.3360002 6.4,6.336 6.4,16.576 0,10.304 -6.4,16.64 -6.336,6.272 -16.832,6.272 z m 5.888,-40.1920002 V 44.07008 h 8.128 q 8,0 12.608,-4.544 4.608,-4.608 4.608,-12.736 0,-8.064 -4.608,-12.672 -4.608,-4.6080002 -12.608,-4.6080002 z"
       style="font-size:64px;line-height:1;fill:#ffffff"
       id="path543" />
    <path
       d="m 323.70058,50.72608 q -6.912,0 -11.392,-4.736 -4.48,-4.736 -4.48,-11.968 0,-7.168 4.352,-11.904 4.352,-4.8 11.136,-4.8 6.976,0 11.072,4.544 4.16,4.48 4.16,12.608 l -0.064,0.64 h -24.64 q 0.128,4.608 3.072,7.424 2.944,2.816 7.04,2.816 5.632,0 8.832,-5.632 l 5.248,2.56 q -2.112,3.968 -5.888,6.208 -3.712,2.24 -8.448,2.24 z m -9.408,-20.48 h 17.984 q -0.256,-3.264 -2.688,-5.376 -2.368,-2.176 -6.4,-2.176 -3.328,0 -5.76,2.048 -2.368,2.048 -3.136,5.504 z"
       style="font-size:64px;line-height:1;fill:#ffffff"
       id="path545" />
    <path
       d="m 358.47758,49.70208 h -5.888 l -12.672,-31.36 h 6.4 l 9.216,24.32 h 0.128 l 9.344,-24.32 h 6.272 z"
       style="font-size:64px;line-height:1;fill:#ffffff"
       id="path547" />
    <path
       d="m 382.03258,30.05408 v 19.648 h -5.888 V 3.8780798 h 26.752 v 5.632 h -20.864 V 24.55008 h 18.816 v 5.504 z"
       style="font-size:64px;line-height:1;fill:#ffffff"
       id="path549" />
    <path
       d="m 420.70058,50.72608 q -6.912,0 -11.392,-4.736 -4.48,-4.736 -4.48,-11.968 0,-7.168 4.352,-11.904 4.352,-4.8 11.136,-4.8 6.976,0 11.072,4.544 4.16,4.48 4.16,12.608 l -0.064,0.64 h -24.64 q 0.128,4.608 3.072,7.424 2.944,2.816 7.04,2.816 5.632,0 8.832,-5.632 l 5.248,2.56 q -2.112,3.968 -5.888,6.208 -3.712,2.24 -8.448,2.24 z m -9.408,-20.48 h 17.984 q -0.256,-3.264 -2.688,-5.376 -2.368,-2.176 -6.4,-2.176 -3.328,0 -5.76,2.048 -2.368,2.048 -3.136,5.504 z"
       style="font-size:64px;line-height:1;fill:#ffffff"
       id="path551" />
    <path
       d="m 465.24558,40.99808 q 0,4.096 -3.584,6.912 -3.584,2.816 -9.024,2.816 -4.736,0 -8.32,-2.432 -3.584,-2.496 -5.12,-6.528 l 5.248,-2.24 q 1.152,2.816 3.328,4.416 2.24,1.536 4.864,1.536 2.816,0 4.672,-1.216 1.92,-1.216 1.92,-2.88 0,-3.008 -4.608,-4.416 l -5.376,-1.344 q -9.152,-2.304 -9.152,-8.832 0,-4.288 3.456,-6.848 3.52,-2.624 8.96,-2.624 4.16,0 7.488,1.984 3.392,1.984 4.736,5.312 l -5.248,2.176 q -0.896,-1.984 -2.944,-3.072 -1.984,-1.152 -4.48,-1.152 -2.304,0 -4.16,1.152 -1.792,1.152 -1.792,2.816 0,2.688 5.056,3.84 l 4.736,1.216 q 9.344,2.304 9.344,9.408 z"
       style="font-size:64px;line-height:1;fill:#ffffff"
       id="path553" />
    <path
       d="m 482.41158,50.21408 q -3.84,0 -6.4,-2.368 -2.496,-2.368 -2.56,-6.592 v -17.536 h -5.504 v -5.376 h 5.504 V 8.7420798 h 5.888 V 18.34208 h 7.68 v 5.376 h -7.68 v 15.616 q 0,3.136 1.216,4.288 1.216,1.088 2.752,1.088 0.704,0 1.344,-0.128 0.704,-0.192 1.28,-0.448 l 1.856,5.248 q -2.304,0.832 -5.376,0.832 z"
       style="font-size:64px;line-height:1;fill:#ffffff"
       id="path555" />
    <path
       d="m 133.27158,67.87808 v 5.632 h -20.864 v 14.528 h 18.816 v 5.504 h -18.816 v 14.528 h 20.864 v 5.632 h -26.752 v -45.824 z"
       style="font-size:64px;line-height:1;fill:#ffffff"
       id="path557" />
    <path
       d="m 145.50858,113.70208 h -5.888 v -31.36 h 5.632 v 4.352 h 0.256 q 1.344,-2.304 4.096,-3.84 2.816,-1.536 5.568,-1.536 3.456,0 6.08,1.6 2.624,1.6 3.84,4.416 3.904,-6.016 10.816,-6.016 5.44,0 8.384,3.328 2.944,3.328 2.944,9.472 v 19.584 h -5.888 v -18.688 q 0,-4.416 -1.6,-6.336 -1.6,-1.984 -5.376,-1.984 -3.392,0 -5.696,2.88 -2.304,2.88 -2.304,6.784 v 17.344 h -5.888 v -18.688 q 0,-4.416 -1.6,-6.336 -1.6,-1.984 -5.376,-1.984 -3.392,0 -5.696,2.88 -2.304,2.88 -2.304,6.784 z"
       style="font-size:64px;line-height:1;fill:#ffffff"
       id="path559" />
    <path
       d="m 201.73658,71.52608 q 0,1.728 -1.216,2.944 -1.216,1.216 -2.944,1.216 -1.728,0 -2.944,-1.216 -1.216,-1.216 -1.216,-2.944 0,-1.728 1.216,-2.944 1.216,-1.216 2.944,-1.216 1.728,0 2.944,1.216 1.216,1.216 1.216,2.944 z m -1.216,10.816 v 31.36 h -5.888 v -31.36 z"
       style="font-size:64px;line-height:1;fill:#ffffff"
       id="path561" />
    <path
       d="m 214.13358,67.87808 v 45.824 h -5.888 v -45.824 z"
       style="font-size:64px;line-height:1;fill:#ffffff"
       id="path563" />
    <path
       d="m 228.86158,71.52608 q 0,1.728 -1.216,2.944 -1.216,1.216 -2.944,1.216 -1.728,0 -2.944,-1.216 -1.216,-1.216 -1.216,-2.944 0,-1.728 1.216,-2.944 1.216,-1.216 2.944,-1.216 1.728,0 2.944,1.216 1.216,1.216 1.216,2.944 z m -1.216,10.816 v 31.36 h -5.888 v -31.36 z"
       style="font-size:64px;line-height:1;fill:#ffffff"
       id="path565" />
    <path
       d="m 239.28358,104.10208 q 0,2.304 1.92,3.84 1.984,1.536 4.608,1.536 3.712,0 6.592,-2.752 2.944,-2.752 2.944,-6.464 -2.752,-2.176 -7.68,-2.176 -3.584,0 -6.016,1.728 -2.368,1.728 -2.368,4.288 z m 7.616,-22.784 q 6.528,0 10.304,3.52 3.776,3.456 3.776,9.536 v 19.328 h -5.632 v -4.352 h -0.256 q -3.648,5.376 -9.728,5.376 -5.184,0 -8.704,-3.072 -3.456,-3.072 -3.456,-7.68 0,-4.864 3.648,-7.744 3.712,-2.88 9.856,-2.88 5.248,0 8.64,1.92 v -1.344 q 0,-3.072 -2.432,-5.184 -2.432,-2.176 -5.696,-2.176 -4.928,0 -7.808,4.16 l -5.184,-3.264 q 4.288,-6.144 12.672,-6.144 z"
       style="font-size:64px;line-height:1;fill:#ffffff"
       id="path567" />
    <path
       d="m 288.65758,73.51008 v 16.128 h 9.472 q 3.584,0 6.08,-2.304 2.496,-2.368 2.496,-5.824 0,-3.2 -2.368,-5.568 -2.304,-2.432 -5.824,-2.432 z m 0,40.192 h -5.888 v -45.824 h 15.616 q 5.952,0 10.112,3.968 4.224,3.904 4.224,9.664 0,4.736 -3.136,8.448 -3.072,3.648 -7.808,4.672 l -0.128,0.192 12.864,18.624 v 0.256 h -6.976 l -12.352,-18.56 h -6.528 z"
       style="font-size:64px;line-height:1;fill:#ffffff"
       id="path569" />
    <path
       d="m 316.32858,98.02208 q 0,-7.232 4.544,-11.968 4.608,-4.736 11.584,-4.736 6.976,0 11.52,4.736 4.608,4.736 4.608,11.968 0,7.296 -4.608,11.968 -4.544,4.736 -11.52,4.736 -6.976,0 -11.584,-4.736 -4.544,-4.736 -4.544,-11.968 z m 5.888,0 q 0,5.056 2.944,8.192 2.944,3.136 7.296,3.136 4.352,0 7.296,-3.136 2.944,-3.136 2.944,-8.192 0,-4.992 -2.944,-8.128 -3.008,-3.2 -7.296,-3.2 -4.288,0 -7.296,3.2 -2.944,3.136 -2.944,8.128 z"
       style="font-size:64px;line-height:1;fill:#ffffff"
       id="path571" />
    <path
       d="m 359.25858,113.70208 h -5.888 v -31.36 h 5.632 v 4.352 h 0.256 q 1.344,-2.304 4.096,-3.84 2.816,-1.536 5.568,-1.536 3.456,0 6.08,1.6 2.624,1.6 3.84,4.416 3.904,-6.016 10.816,-6.016 5.44,0 8.384,3.328 2.944,3.328 2.944,9.472 v 19.584 h -5.888 v -18.688 q 0,-4.416 -1.6,-6.336 -1.6,-1.984 -5.376,-1.984 -3.392,0 -5.696,2.88 -2.304,2.88 -2.304,6.784 v 17.344 h -5.888 v -18.688 q 0,-4.416 -1.6,-6.336 -1.6,-1.984 -5.376,-1.984 -3.392,0 -5.696,2.88 -2.304,2.88 -2.304,6.784 z"
       style="font-size:64px;line-height:1;fill:#ffffff"
       id="path573" />
    <path
       d="m 411.78358,104.10208 q 0,2.304 1.92,3.84 1.984,1.536 4.608,1.536 3.712,0 6.592,-2.752 2.944,-2.752 2.944,-6.464 -2.752,-2.176 -7.68,-2.176 -3.584,0 -6.016,1.728 -2.368,1.728 -2.368,4.288 z m 7.616,-22.784 q 6.528,0 10.304,3.52 3.776,3.456 3.776,9.536 v 19.328 h -5.632 v -4.352 h -0.256 q -3.648,5.376 -9.728,5.376 -5.184,0 -8.704,-3.072 -3.456,-3.072 -3.456,-7.68 0,-4.864 3.648,-7.744 3.712,-2.88 9.856,-2.88 5.248,0 8.64,1.92 v -1.344 q 0,-3.072 -2.432,-5.184 -2.432,-2.176 -5.696,-2.176 -4.928,0 -7.808,4.16 l -5.184,-3.264 q 4.288,-6.144 12.672,-6.144 z"
       style="font-size:64px;line-height:1;fill:#ffffff"
       id="path575" />
    <path
       d="m 453.82558,109.35008 q 4.352,0 7.104,-3.136 2.88,-3.136 2.88,-8.192 0,-4.928 -2.88,-8.128 -2.816,-3.2 -7.104,-3.2 -4.224,0 -7.104,3.2 -2.88,3.2 -2.88,8.128 0,4.992 2.88,8.128 2.88,3.2 7.104,3.2 z m -0.192,19.2 q -2.624,0 -4.928,-0.704 -2.304,-0.64 -4.224,-1.856 -1.856,-1.216 -3.2,-2.88 -1.344,-1.664 -2.048,-3.712 l 5.568,-2.304 q 0.96,2.752 3.328,4.416 2.368,1.664 5.504,1.664 4.8,0 7.488,-2.88 2.688,-2.88 2.688,-7.936 v -3.008 h -0.256 q -1.664,2.496 -4.544,3.968 -2.816,1.408 -6.144,1.408 -6.144,0 -10.56,-4.8 -4.352,-4.928 -4.352,-11.904 0,-6.976 4.352,-11.84 4.416,-4.864 10.56,-4.864 3.328,0 6.144,1.472 2.88,1.408 4.544,3.904 h 0.256 v -4.352 h 5.632 v 30.016 q 0,7.552 -4.288,11.84 -4.352,4.352 -11.52,4.352 z"
       style="font-size:64px;line-height:1;fill:#ffffff"
       id="path577" />
    <path
       d="m 476.62058,82.34208 h 5.632 v 4.352 h 0.256 q 1.344,-2.304 4.096,-3.84 2.816,-1.536 5.824,-1.536 5.76,0 8.832,3.328 3.136,3.264 3.136,9.344 v 19.712 h -5.888 v -19.328 q -0.192,-7.68 -7.744,-7.68 -3.52,0 -5.888,2.88 -2.368,2.816 -2.368,6.784 v 17.344 h -5.888 z"
       style="font-size:64px;line-height:1;fill:#ffffff"
       id="path579" />
    <path
       d="m 515.28358,104.10208 q 0,2.304 1.92,3.84 1.984,1.536 4.608,1.536 3.712,0 6.592,-2.752 2.944,-2.752 2.944,-6.464 -2.752,-2.176 -7.68,-2.176 -3.584,0 -6.016,1.728 -2.368,1.728 -2.368,4.288 z m 7.616,-22.784 q 6.528,0 10.304,3.52 3.776,3.456 3.776,9.536 v 19.328 h -5.632 v -4.352 h -0.256 q -3.648,5.376 -9.728,5.376 -5.184,0 -8.704,-3.072 -3.456,-3.072 -3.456,-7.68 0,-4.864 3.648,-7.744 3.712,-2.88 9.856,-2.88 5.248,0 8.64,1.92 v -1.344 q 0,-3.072 -2.432,-5.184 -2.432,-2.176 -5.696,-2.176 -4.928,0 -7.808,4.16 l -5.184,-3.264 q 4.288,-6.144 12.672,-6.144 z"
       style="font-size:64px;line-height:1;fill:#ffffff"
       id="path581" />
  </g>
</svg>
